Coordinates
version=1
nRows=13
nColumns=40
inDegrees=yes

Units are S.I. units (second, meters, Newtons, ...)
Angles are in degrees.

endheader
time	pelvis_tilt	pelvis_list	pelvis_rotation	pelvis_tx	pelvis_ty	pelvis_tz	hip_flexion_r	hip_adduction_r	hip_rotation_r	knee_angle_r	knee_angle_r_beta	ankle_angle_r	subtalar_angle_r	mtp_angle_r	hip_flexion_l	hip_adduction_l	hip_rotation_l	knee_angle_l	knee_angle_l_beta	ankle_angle_l	subtalar_angle_l	mtp_angle_l	lumbar_extension	lumbar_bending	lumbar_rotation	arm_flex_r	arm_add_r	arm_rot_r	elbow_flex_r	pro_sup_r	wrist_flex_r	wrist_dev_r	arm_flex_l	arm_add_l	arm_rot_l	elbow_flex_l	pro_sup_l	wrist_flex_l	wrist_dev_l
     23.14750000	     -3.82073325	     -5.57532945	      2.75035146	      0.91326398	      0.93287446	      0.49866268	      8.76610614	      4.60290411	    -17.83114874	     13.15443021	     13.15443021	     10.96554435	      5.25680912	     -3.07918978	     31.22829425	    -12.84580022	     -0.75689832	     53.71954067	     53.71954067	     11.34936970	    -18.66732042	     12.86782628	     -9.29893382	      7.34285922	      4.01281780	     27.85793486	    -17.50478131	    -10.22100939	     52.45826674	     45.71494277	      0.00000000	      0.00000000	     -2.99836045	     -7.66129919	      3.63421419	     29.07678556	     45.90987727	      0.00000000	      0.00000000
     23.15957143	     -3.90120765	     -5.55218730	      2.82798887	      0.91290800	      0.93272611	      0.49805379	      8.12375075	      4.64398623	    -17.80375165	     12.68557908	     12.68557908	     11.17409322	      5.40011486	     -3.21421407	     31.86098632	    -12.53640647	     -0.88386833	     50.75970455	     50.75970455	     11.45513757	    -18.59572930	     13.65902141	     -9.32185376	      7.41963412	      4.05984491	     29.57630703	    -17.58056919	    -10.40677484	     53.99140048	     45.67516309	      0.00000000	      0.00000000	     -4.14721243	     -7.49475134	      3.78915112	     28.40377922	     45.86327564	      0.00000000	      0.00000000
     23.17164286	     -4.00741859	     -5.51642106	      2.91106950	      0.91252783	      0.93248712	      0.49727192	      7.53447599	      4.64438181	    -17.80298938	     12.26947680	     12.26947680	     11.38501570	      5.55672719	     -3.34659538	     32.38885546	    -12.10743555	     -0.89428350	     47.57696806	     47.57696806	     11.39995436	    -18.43457697	     14.16066741	     -9.31682387	      7.45533277	      4.12621852	     31.18405205	    -17.66662938	    -10.56590524	     55.46196277	     45.63662767	      0.00000000	      0.00000000	     -5.22181466	     -7.33953251	      3.94329385	     27.86207194	     45.81789199	      0.00000000	      0.00000000
     23.18371429	     -4.11328928	     -5.52769481	      3.01847881	      0.91215164	      0.93211530	      0.49631123	      6.92143320	      4.67995838	    -17.89760272	     11.81005923	     11.81005923	     11.58051154	      5.86227228	     -3.51953968	     32.83183763	    -11.64184237	     -0.74316274	     44.27735369	     44.27735369	     11.24312265	    -18.03982632	     14.33016235	     -9.32830312	      7.58565578	      4.08265453	     32.72120150	    -17.65019898	    -10.72606440	     57.26268992	     45.58618165	      0.00000000	      0.00000000	     -6.30709902	     -7.15996752	      4.15756583	     27.34053312	     45.76145636	      0.00000000	      0.00000000
     23.19578571	     -4.18446654	     -5.57060708	      3.17533861	      0.91187224	      0.93172797	      0.49516393	      6.22285612	      4.73505091	    -18.21567584	     11.27813884	     11.27813884	     11.76848734	      6.40014630	     -3.77914332	     33.12018763	    -11.15344976	     -0.50767512	     40.83581070	     40.83581070	     10.77860307	    -17.47705606	     13.75961547	     -9.35183664	      7.78668534	      3.99797287	     33.98274325	    -17.56732509	    -10.92063421	     59.76648840	     45.51161475	      0.00000000	      0.00000000	     -7.34211765	     -7.01324535	      4.52514114	     26.88755746	     45.67757277	      0.00000000	      0.00000000
     23.20785714	     -4.47065895	     -5.67725321	      3.23232504	      0.91141100	      0.93092274	      0.49410128	      5.95979124	      4.81895060	    -18.23954113	     11.10135686	     11.10135686	     11.98112315	      6.49145264	     -3.88835911	     33.63980443	    -10.77473126	     -0.27486208	     37.54179299	     37.54179299	     10.74090698	    -16.23779622	     13.97030554	     -9.11531265	      7.96955368	      4.34304054	     35.34373793	    -17.99006603	    -11.07220701	     60.60247514	     45.49573659	      0.00000000	      0.00000000	     -8.14370548	     -6.82692320	      4.60767868	     26.61871195	     45.64971307	      0.00000000	      0.00000000
     23.21992857	     -4.48432706	     -5.53707654	      3.29949913	      0.91137251	      0.93067263	      0.49286054	      5.16281221	      4.69066246	    -18.32894646	     10.54668587	     10.54668587	     12.21377688	      6.96075073	     -3.95594105	     33.54449197	    -10.19828035	     -0.30383680	     34.01131083	     34.01131083	     10.50920192	    -14.72554168	     13.76424418	     -9.22045597	      7.85766320	      4.17926943	     36.54953215	    -17.66228350	    -11.11506685	     62.39781712	     45.44105601	      0.00000000	      0.00000000	     -9.12066049	     -6.75671971	      4.80481352	     26.21470436	     45.59851807	      0.00000000	      0.00000000
     23.23200000	     -4.56833751	     -5.61732869	      3.40435059	      0.91142602	      0.93010113	      0.49158743	      4.47567824	      4.78300885	    -18.57766591	     10.04971524	     10.04971524	     12.41948809	      7.48103760	     -4.02651320	     33.60175030	     -9.85987149	     -0.26071712	     30.77469256	     30.77469256	     10.23329178	    -12.92489543	     13.38097494	     -9.16303834	      8.03272447	      4.09846585	     37.64639110	    -17.54097115	    -11.20017205	     64.29695118	     45.38505446	      0.00000000	      0.00000000	     -9.99447555	     -6.62303950	      5.01000381	     25.96570756	     45.54673808	      0.00000000	      0.00000000
     23.24407143	     -4.60519988	     -5.75595162	      3.47035266	      0.91165433	      0.92940120	      0.49033460	      3.71294964	      4.93004633	    -18.94784337	      9.53923838	      9.53923838	     12.70388904	      8.37695790	     -4.05709388	     33.51604734	     -9.64972050	     -0.38992805	     27.63139475	     27.63139475	      9.16742917	    -11.13571931	     11.03154298	     -9.26325485	      8.20864700	      4.63655685	     37.63579289	    -18.04776377	    -11.61563927	     68.28209194	     45.27589088	      0.00000000	      0.00000000	    -10.63340691	     -6.66318759	      5.83369885	     26.22764378	     45.38940108	      0.00000000	      0.00000000
     23.25614286	     -4.85134512	     -5.98586332	      3.54134901	      0.91177542	      0.92827618	      0.48901414	      3.37043573	      5.14670897	    -19.01559565	      9.35061647	      9.35061647	     12.95782608	      8.42465604	     -4.14073213	     33.82935122	     -9.44160291	     -0.23217968	     25.14364205	     25.14364205	      8.94199471	     -9.71907122	     11.42070312	     -8.94203804	      8.49707310	      4.80221256	     38.77286122	    -18.22498039	    -11.71363271	     68.95690214	     45.26270610	      0.00000000	      0.00000000	    -11.33304013	     -6.57742563	      5.90598178	     25.96774278	     45.36585771	      0.00000000	      0.00000000
     23.26821429	     -4.73168264	     -5.82581358	      3.54269448	      0.91256292	      0.92792609	      0.48764951	      2.31560220	      5.04022907	    -19.00436851	      8.68889749	      8.68889749	     13.22088767	      8.85029278	     -4.05383834	     33.37380588	     -9.06834512	     -0.92956526	     22.62579865	     22.62579865	      8.73226750	     -7.81268425	     11.71525035	     -9.07069608	      8.30274694	      4.42374310	     39.54799731	    -17.50027421	    -11.60469998	     70.74604668	     45.20478607	      0.00000000	      0.00000000	    -12.10781166	     -6.53757347	      6.12857786	     25.72041765	     45.31614415	      0.00000000	      0.00000000
     23.28028571	     -4.89023175	     -5.97293317	      3.54863747	      0.91321611	      0.92678394	      0.48628484	      1.81246201	      5.18160289	    -18.98702589	      8.45610344	      8.45610344	     13.54693264	      8.95919533	     -4.10316043	     33.49938544	     -8.92014926	     -1.25873403	     20.90460230	     20.90460230	      8.39538935	     -6.77077074	     12.06764171	     -8.77226600	      8.44448561	      4.48458120	     40.33233958	    -17.47037331	    -11.62466118	     71.65976798	     45.17975817	      0.00000000	      0.00000000	    -12.66363111	     -6.48582731	      6.18795069	     25.61238408	     45.29662834	      0.00000000	      0.00000000
     23.29235714	     -4.79907397	     -5.94495309	      3.53173338	      0.91441474	      0.92600134	      0.48489583	      0.86882607	      5.18961889	    -18.92965362	      8.00093707	      8.00093707	     13.99699452	      9.27367728	     -3.71026404	     33.21383070	     -8.72889792	     -2.08946649	     19.52244433	     19.52244433	      8.05859113	     -5.64621092	     12.04620295	     -8.87220921	      8.37425467	      4.68618493	     40.01032526	    -17.46164796	    -11.72957388	     75.12704511	     45.08474366	      0.00000000	      0.00000000	    -13.28332654	     -6.67039485	      6.52549284	     26.15455094	     45.23495715	      0.00000000	      0.00000000
